<?xml version="1.0" standalone="no"?>
<!DOCTYPE svg PUBLIC "-//W3C//DTD SVG 20010904//EN"
 "http://www.w3.org/TR/2001/REC-SVG-20010904/DTD/svg10.dtd">
<svg version="1.0" xmlns="http://www.w3.org/2000/svg"
 width="1772.000000pt" height="1772.000000pt" viewBox="0 0 1772.000000 1772.000000"
 preserveAspectRatio="xMidYMid meet">
<metadata>
Created by potrace 1.11, written by Peter Selinger 2001-2013
</metadata>
<g transform="translate(0.000000,1772.000000) scale(0.100000,-0.100000)"
fill="#000000" stroke="none">
<path d="M0 8860 l0 -8860 8860 0 8860 0 0 8860 0 8860 -8860 0 -8860 0 0
-8860z m2156 -2081 c50 -32 225 -162 390 -289 747 -575 1171 -849 1784 -1156
1161 -579 2444 -897 3930 -974 251 -13 949 -13 1200 0 1486 77 2769 395 3930
974 613 307 1037 581 1784 1156 296 227 447 334 517 363 32 13 39 13 74 -4 84
-41 139 -122 166 -244 17 -76 17 -334 0 -438 -19 -118 -75 -330 -116 -442 -79
-215 -261 -558 -414 -780 -300 -436 -729 -887 -1221 -1286 -631 -512 -1404
-961 -2205 -1279 -726 -288 -1530 -487 -2285 -564 -534 -55 -1129 -55 -1660 0
-1760 181 -3512 949 -4790 2100 -199 179 -503 494 -649 673 -249 305 -408 544
-546 821 -186 372 -268 677 -269 990 0 258 51 386 179 449 35 17 42 17 74 4
20 -9 77 -42 127 -74z"/>
</g>
</svg>
