<?xml version="1.0" encoding="UTF-8" standalone="no"?>
<!DOCTYPE svg PUBLIC "-//W3C//DTD SVG 1.1//EN" "http://www.w3.org/Graphics/SVG/1.1/DTD/svg11.dtd">
<svg width="100%" height="100%" viewBox="0 0 1418 513" version="1.1" xmlns="http://www.w3.org/2000/svg" xmlns:xlink="http://www.w3.org/1999/xlink" xml:space="preserve" style="fill-rule:evenodd;clip-rule:evenodd;stroke-linejoin:round;stroke-miterlimit:1.41421;">
    <g transform="matrix(1,0,0,1,-1592.44,-1204.2)">
        <path d="M2184.52,1479.02C2198.45,1432.39 2280.38,1269.63 2324.65,1208.94C2329.14,1202.45 2334.63,1202.95 2337.63,1208.44C2345.12,1222.92 2344.12,1242.89 2323.65,1280.33C2312.17,1300.8 2292.7,1334.75 2279.22,1358.71C2294.7,1343.74 2309.17,1334.75 2322.65,1330.76C2342.12,1325.27 2354.1,1332.25 2364.09,1353.22C2373.08,1372.19 2372.08,1393.66 2353.61,1411.13C2336.13,1427.61 2314.66,1442.09 2284.21,1452.07C2286.21,1493.01 2301.18,1522.96 2316.66,1523.46C2342.12,1524.46 2390.05,1458.56 2415.01,1387.67C2375.07,1372.69 2422,1305.3 2442.47,1303.8C2458.44,1302.8 2454.45,1333.75 2443.47,1367.2C2460.94,1364.7 2478.91,1356.22 2498.38,1343.24C2504.37,1338.25 2508.87,1337.25 2512.36,1342.24C2522.35,1352.72 2534.33,1375.69 2519.85,1392.66C2496.39,1419.62 2470.43,1454.57 2462.44,1479.53C2453.95,1506.99 2459.94,1526.95 2474.92,1527.45C2495.32,1528.42 2519.97,1497.74 2536,1461.59C2540.21,1447.11 2547.4,1431.78 2557.79,1416.62C2598.23,1357.71 2637.67,1335.25 2662.63,1335.25C2684.1,1335.25 2694.08,1351.72 2693.08,1371.19C2699.57,1359.21 2705.56,1348.73 2711.05,1340.74C2715.55,1334.25 2719.54,1333.25 2723.04,1337.75C2730.53,1346.73 2734.52,1368.2 2722.54,1393.16C2711.55,1415.63 2686.59,1453.07 2674.61,1479.53C2662.13,1507.49 2661.63,1528.95 2678.61,1527.95C2693.39,1527.23 2711.82,1509.33 2727.49,1486.46C2769.68,1388.32 2835.75,1280.33 2873.8,1223.42C2877.8,1217.43 2884.29,1217.93 2886.28,1223.92C2892.28,1240.89 2890.78,1262.36 2869.31,1298.81C2848.84,1332.75 2814.4,1389.17 2787.44,1441.59C2806.41,1447.58 2813.9,1466.55 2813.4,1499.5C2813.4,1504.99 2812.9,1510.48 2812.4,1516.47C2830.21,1504.76 2848.89,1482.04 2861.85,1457.83C2863.08,1453.86 2864.57,1449.78 2866.32,1445.58C2876.8,1420.62 2897.77,1378.68 2919.24,1339.24C2902.26,1339.24 2890.78,1331.76 2886.78,1326.26C2881.79,1319.27 2884.79,1315.78 2892.28,1316.28C2906.26,1316.78 2920.23,1315.78 2933.71,1314.28C2949.19,1286.82 2963.17,1263.36 2971.65,1252.38C2976.15,1245.89 2981.14,1246.39 2983.64,1252.38C2989.13,1266.36 2989.13,1282.83 2977.15,1308.79C2996.62,1308.29 3004.1,1317.28 3008.1,1323.77C3011.59,1329.76 3009.6,1333.25 3002.11,1333.25C2991.12,1331.76 2975.65,1333.25 2963.17,1335.25C2943.7,1368.7 2915.24,1417.12 2896.27,1459.06C2879.8,1495.5 2885.29,1526.46 2906.26,1527.45C2928.72,1528.45 2957.18,1493.01 2975.65,1455.57C2978.64,1449.57 2984.14,1448.58 2986.13,1455.57C2988.63,1463.55 2986.13,1472.54 2981.14,1484.02C2974.65,1498.5 2941.7,1542.43 2901.76,1540.93C2881.11,1540.31 2863.01,1525.56 2858.27,1500.5C2847.15,1513.44 2829.61,1528.55 2809.9,1535.44C2801.91,1585.86 2779.95,1641.28 2755.99,1671.23C2739.01,1692.2 2726.53,1694.2 2711.55,1681.22C2699.07,1670.73 2684.1,1651.26 2689.59,1608.83C2692.45,1585.99 2699.57,1559.8 2709.53,1531.87C2698.57,1538.87 2686.76,1543.04 2675.61,1542.43C2648.65,1540.93 2634.67,1524.96 2634.67,1501.49C2618.7,1521.96 2596.23,1540.43 2572.27,1540.43C2551.2,1540.43 2537.74,1527.38 2533.19,1507.48C2518.27,1528.64 2494.54,1542.74 2472.42,1541.93C2434.48,1540.43 2419.5,1505.99 2431.98,1466.05C2442.47,1432.6 2473.42,1395.16 2494.39,1371.19C2472.42,1385.17 2450.95,1390.16 2434.48,1390.16C2408.52,1457.06 2360.1,1539.93 2311.17,1538.44C2276.72,1537.44 2247.27,1509.48 2247.77,1442.59C2247.77,1433.1 2249.26,1431.1 2258.75,1428.11C2320.16,1408.14 2353.61,1364.7 2346.12,1351.23C2341.12,1342.74 2319.16,1347.73 2291.7,1368.7C2254.26,1397.15 2231.79,1440.59 2192.85,1532.45C2190.86,1536.94 2187.86,1537.94 2184.86,1534.44C2180.8,1529.3 2178.35,1522.38 2178.4,1512.35C2157.46,1529.66 2130.48,1541.08 2103.49,1541.43C2074.42,1541.89 2054.06,1529.02 2043.66,1508.74C2028.91,1525.03 2006.66,1541.87 1981.68,1540.93C1958.88,1540.24 1939.19,1522.35 1937.16,1492.38C1917.01,1519.06 1884.43,1536.33 1846.38,1551.92C1818.43,1618.81 1782.98,1699.19 1741.55,1715.16C1732.06,1718.66 1722.58,1718.66 1713.09,1704.68C1703.11,1689.7 1693.12,1672.23 1703.11,1642.78C1718.08,1597.85 1760.52,1567.89 1809.94,1548.42C1814.93,1536.94 1819.93,1524.46 1825.42,1512.48C1809.94,1528.45 1790.97,1541.43 1771,1539.93C1752.84,1538.42 1743.6,1528.37 1740.38,1514.55C1721.87,1531.24 1698.36,1540.41 1674.15,1541.43C1645.19,1542.43 1617.24,1534.94 1600.26,1503.99C1588.28,1481.53 1589.78,1448.58 1606.75,1434.6C1612.74,1429.6 1616.74,1431.6 1617.24,1439.59C1617.74,1443.58 1617.74,1447.58 1618.24,1451.57C1638.7,1423.61 1661.17,1391.16 1675.65,1365.7C1678.14,1346.23 1683.14,1336.75 1693.62,1327.26C1704.6,1317.28 1716.09,1315.28 1720.58,1319.77C1725.57,1324.77 1723.08,1330.26 1716.59,1341.74C1714.59,1344.74 1713.09,1347.73 1711.09,1351.23C1707.6,1397.15 1717.08,1436.1 1715.59,1470.54C1714.59,1490.01 1711.09,1510.98 1693.12,1522.96C1713.09,1515.51 1728.61,1501.83 1740.53,1486.28C1741.66,1480.08 1743.38,1473.75 1745.54,1467.55C1756.52,1435.6 1780.99,1386.17 1813.44,1341.24C1817.43,1335.75 1822.42,1336.25 1825.92,1341.24C1837.9,1357.22 1834.9,1378.18 1816.43,1407.64C1798.46,1436.59 1787.48,1457.06 1777.99,1480.53C1768.01,1504.99 1769,1522.46 1780.49,1523.46C1799.96,1524.96 1824.92,1493.01 1850.38,1449.57C1871.85,1412.63 1893.31,1367.7 1910.79,1342.24C1915.28,1335.75 1918.77,1334.75 1923.27,1338.74C1930.26,1347.73 1934.25,1369.2 1921.27,1394.66C1906.29,1423.61 1875.84,1483.52 1854.87,1531.95C1893.14,1511.34 1922.25,1483.5 1942.19,1456.49C1943.34,1452.94 1944.68,1449.3 1946.23,1445.58C1956.72,1420.62 1977.68,1378.68 1999.15,1339.24C1982.18,1339.24 1970.69,1331.76 1966.7,1326.26C1961.71,1319.27 1964.7,1315.78 1972.19,1316.28C1986.17,1316.78 2000.15,1315.78 2013.63,1314.28C2029.1,1286.82 2043.08,1263.36 2051.57,1252.38C2056.06,1245.89 2061.05,1246.39 2063.55,1252.38C2069.04,1266.36 2069.04,1282.83 2057.06,1308.79C2076.53,1308.29 2084.02,1317.28 2088.01,1323.77C2091.51,1329.76 2089.51,1333.25 2082.02,1333.25C2071.04,1331.76 2055.56,1333.25 2043.08,1335.25C2023.61,1368.7 1995.16,1417.12 1976.18,1459.06C1959.71,1495.5 1965.2,1526.46 1986.17,1527.45C2001.95,1528.15 2020.69,1510.88 2036.84,1487.55C2033.38,1466.45 2037.69,1441.2 2050.57,1415.63C2083.02,1351.23 2133.94,1325.27 2158.9,1339.74C2171.39,1347.23 2180.37,1354.72 2188.36,1365.7C2197.35,1377.68 2193.35,1408.14 2172.38,1433.6C2147.92,1463.55 2114.47,1476.53 2079.53,1448.08C2063.55,1494.01 2075.53,1525.46 2101.99,1526.95C2134.02,1528.5 2163.07,1504.99 2184.52,1479.02ZM1801.45,1569.39C1770.5,1642.78 1729.57,1697.19 1723.08,1687.71C1714.09,1675.23 1736.55,1606.83 1801.45,1569.39ZM2751.49,1518.97C2757.48,1530.95 2767.47,1537.44 2781.95,1538.94C2765.47,1607.33 2728.03,1676.23 2717.05,1661.75C2705.56,1647.27 2723.54,1585.37 2751.49,1518.97ZM2996.18,1636.48L2816.25,1636.48C2821.48,1626.35 2826.23,1615.49 2830.38,1604.02L3009.77,1604.02L2996.18,1636.48ZM2660.97,1636.48L1836.37,1636.48C1840.82,1625.62 1847.78,1614.7 1849.66,1604.02L2660.26,1604.02C2659.67,1615.36 2659.93,1626.25 2660.97,1636.48ZM1680.51,1636.48L1592.44,1636.48L1606.03,1604.02L1694.3,1604.02C1688.64,1614.6 1683.99,1625.55 1680.51,1636.48ZM2784.94,1524.46C2775.46,1522.46 2770.96,1511.98 2771.46,1496C2771.96,1484.52 2776.45,1458.06 2781.45,1456.06C2784.94,1454.57 2789.93,1470.04 2789.43,1488.51C2788.93,1500 2787.44,1512.48 2784.94,1524.46ZM2649.65,1448.58C2624.19,1492.51 2598.23,1524.46 2577.76,1523.96C2558.29,1523.46 2564.78,1479.53 2591.24,1436.59C2618.7,1392.16 2655.14,1359.71 2671.12,1361.21C2685.59,1362.71 2681.1,1393.66 2649.65,1448.58ZM1674.65,1397.65C1676.65,1437.59 1684.13,1515.97 1661.17,1522.96C1644.69,1527.95 1630.22,1507.49 1622.73,1478.53C1641.7,1451.57 1660.17,1424.11 1674.65,1397.65ZM2084.02,1437.09C2085.02,1434.6 2086.52,1431.6 2088.01,1428.61C2111.48,1381.18 2152.91,1351.23 2163.4,1359.71C2170.39,1365.2 2159.4,1391.16 2143.43,1412.13C2128.95,1431.1 2108.48,1452.57 2084.02,1437.09Z" style="fill:white;"/>
    </g>
</svg>
